<?xml version="1.0" standalone="no"?>
<!DOCTYPE svg PUBLIC "-//W3C//DTD SVG 20010904//EN"
 "http://www.w3.org/TR/2001/REC-SVG-20010904/DTD/svg10.dtd">
<svg version="1.0" xmlns="http://www.w3.org/2000/svg"
 width="160.000000pt" height="160.000000pt" viewBox="0 0 160.000000 160.000000"
 preserveAspectRatio="xMidYMid meet">
<metadata>
Created by potrace 1.11, written by Peter Selinger 2001-2013
</metadata>
<g transform="translate(0.000000,160.000000) scale(0.100000,-0.100000)"
fill="#000000" stroke="none">
<path d="M0 1400 l0 -200 40 0 c51 0 52 -17 3 -23 -21 -2 -4 -2 37 0 41 3 77
9 78 14 2 5 21 9 42 9 27 0 40 5 45 18 6 14 9 12 20 -13 7 -16 14 -24 14 -17
1 7 5 11 10 8 5 -4 7 3 4 14 -7 27 6 25 16 -2 7 -19 14 -22 49 -20 22 2 43 -1
46 -6 8 -14 -123 -15 -140 -1 -8 6 -17 9 -21 5 -3 -3 -1 -6 6 -6 7 0 10 -4 6
-10 -3 -5 9 -35 26 -66 l32 -56 -7 -181 c-6 -152 -9 -184 -23 -194 -10 -8 -12
-13 -5 -13 8 0 12 -20 12 -59 0 -48 -3 -59 -17 -63 -23 -5 -198 7 -240 17
l-32 7 -1 -281 0 -281 800 0 800 0 0 108 0 107 -32 1 c-18 1 -34 6 -36 13 -2
6 -10 11 -18 11 -8 0 -14 5 -14 10 0 6 20 10 44 10 34 0 46 -4 49 -18 3 -9 5
74 5 185 1 230 9 211 -95 212 -57 1 -63 -1 -63 -19 0 -17 -3 -18 -19 -9 -14 9
-25 9 -49 -2 -21 -9 -27 -16 -19 -21 9 -6 9 -8 0 -8 -7 0 -13 -7 -13 -17 0
-23 -8 -13 -13 17 -3 14 -6 30 -8 35 -1 6 1 18 6 28 4 9 3 23 -3 30 -6 7 -14
92 -18 195 -6 143 -4 188 6 207 13 25 40 34 40 14 0 -5 -4 -7 -10 -4 -15 9
-12 -7 5 -32 8 -12 12 -30 9 -40 -4 -12 -3 -14 3 -5 8 10 17 9 46 -3 22 -9 37
-11 37 -5 0 15 76 12 117 -5 19 -8 37 -15 39 -15 2 0 4 140 4 310 l0 310 -800
0 -800 0 0 -200z m1089 54 c2 -2 -103 -4 -235 -5 -131 0 -249 -2 -261 -3 -13
-2 -23 1 -23 5 0 5 33 9 73 11 93 4 441 -2 446 -8z m-546 -1 c-13 -2 -35 -2
-50 0 -16 2 -5 4 22 4 28 0 40 -2 28 -4z m-126 -65 c-3 -7 -5 -2 -5 12 0 14 2
19 5 13 2 -7 2 -19 0 -25z m3 -38 c0 -5 -7 -10 -15 -10 -8 0 -15 5 -15 10 0 6
7 10 15 10 8 0 15 -4 15 -10z m913 -140 c3 -11 1 -20 -4 -20 -5 0 -9 9 -9 20
0 11 2 20 4 20 2 0 6 -9 9 -20z m-311 -14 c175 -1 240 -4 250 -14 9 -9 -72
-12 -406 -12 -367 0 -417 2 -406 15 9 11 42 15 138 18 70 1 141 1 157 -2 17
-2 137 -4 267 -5z m288 -12 c0 -8 -5 -12 -10 -9 -6 4 -8 11 -5 16 9 14 15 11
15 -7z m50 -64 c0 -5 -2 -10 -4 -10 -3 0 -8 5 -11 10 -3 6 -1 10 4 10 6 0 11
-4 11 -10z m-537 -151 c-12 -4 -32 -5 -45 -1 l-23 6 25 6 c14 4 34 4 44 2 19
-5 19 -6 -1 -13z m54 -5 c-3 -3 -12 -4 -19 -1 -8 3 -5 6 6 6 11 1 17 -2 13 -5z
m-14 -86 c25 -15 66 -58 68 -73 6 -39 10 -81 15 -157 5 -76 3 -88 -10 -88 -10
0 -16 9 -17 23 0 15 -5 10 -14 -18 -7 -22 -13 -32 -14 -22 -1 15 -6 17 -32 12
-17 -4 -55 -7 -85 -7 -42 -1 -54 -4 -55 -17 0 -10 -2 -12 -6 -3 -7 18 -41 15
-47 -5 -2 -10 -4 49 -3 131 2 161 8 180 63 217 33 22 103 25 137 7z m585 -335
c-10 -2 -26 -2 -35 0 -10 3 -2 5 17 5 19 0 27 -2 18 -5z m-11 -19 c-3 -3 -12
-4 -19 -1 -8 3 -5 6 6 6 11 1 17 -2 13 -5z m-388 -173 c-8 -2 -7 -6 2 -13 11
-7 9 -8 -6 -6 -18 3 -20 12 -23 82 -2 67 -1 78 13 73 9 -4 16 0 17 11 1 9 4
-19 5 -63 3 -54 0 -81 -8 -84z m179 128 c2 -5 12 -9 23 -9 17 0 19 -8 19 -59
0 -33 3 -66 6 -75 4 -11 0 -16 -12 -17 -15 -1 -16 -2 -3 -6 10 -2 16 -15 17
-34 l1 -30 -51 7 c-37 5 -52 3 -59 -7 -8 -12 -11 -12 -19 1 -7 12 -13 13 -28
4 -12 -8 -24 -9 -35 -2 -15 8 -17 25 -16 115 0 59 3 112 5 118 5 13 147 7 152
-6z m73 -14 c7 19 8 19 8 -2 1 -14 -5 -23 -14 -23 -10 0 -15 9 -14 28 2 27 2
27 7 2 4 -23 5 -24 13 -5z m-303 -40 c2 -51 -9 -73 -21 -41 -7 17 3 96 12 96
3 0 7 -25 9 -55z m-618 23 c0 6 5 12 11 12 5 0 8 -4 4 -9 -3 -6 17 -12 47 -14
l53 -3 -62 -2 c-53 -2 -63 -5 -62 -19 0 -11 3 -13 6 -5 6 15 113 17 113 2 0
-5 7 -10 16 -10 8 0 12 5 9 10 -3 6 -1 10 4 10 6 0 11 -18 11 -40 0 -47 -2
-56 -12 -53 -5 2 -8 -2 -8 -8 0 -6 6 -9 14 -6 11 4 14 -1 12 -21 -2 -18 -9
-27 -20 -26 -50 2 -55 5 -50 19 7 17 -31 22 -41 5 -8 -12 -65 -13 -83 -1 -11
6 -12 24 -7 77 8 69 23 102 37 80 6 -8 8 -8 8 2z m-55 -59 c-4 -11 -14 -19
-23 -19 -13 0 -13 2 4 15 12 10 14 14 4 12 -8 -2 -12 -2 -7 0 4 3 7 17 8 31
l0 27 10 -24 c5 -13 7 -32 4 -42z m236 -12 c-8 -8 -11 -3 -11 19 1 25 2 27 11
11 8 -14 8 -22 0 -30z m68 -36 c2 -71 0 -81 -18 -91 -18 -9 -21 -7 -27 15 -3
14 -10 25 -16 25 -5 0 -6 -4 -3 -10 3 -5 1 -10 -4 -10 -6 0 -11 9 -11 21 0 14
5 19 14 16 8 -3 23 3 34 13 16 15 19 27 15 60 -3 22 -1 40 4 40 5 0 10 -36 12
-79z m691 54 c0 -18 -5 -25 -20 -25 -15 0 -20 7 -20 25 0 18 5 25 20 25 15 0
20 -7 20 -25z m-673 -62 c-3 -10 -5 -4 -5 12 0 17 2 24 5 18 2 -7 2 -21 0 -30z
m332 7 l1 25 13 -25 c7 -14 18 -26 25 -26 7 -1 19 -2 27 -3 17 -1 21 -51 4
-51 -5 0 -8 4 -5 9 3 5 -1 14 -9 21 -13 11 -15 8 -15 -18 0 -34 -36 -53 -44
-23 -9 34 -15 117 -6 91 l8 -25 1 25z m341 -14 c0 -3 -7 -3 -15 0 -8 4 -15 13
-15 21 0 12 2 12 15 -1 8 -8 15 -17 15 -20z m-1007 7 c-7 -2 -19 -2 -25 0 -7
3 -2 5 12 5 14 0 19 -2 13 -5z m7 -34 c0 -5 -4 -9 -10 -9 -5 0 -10 -7 -10 -15
0 -8 -4 -15 -9 -15 -5 0 -9 13 -9 29 1 22 5 27 19 24 11 -3 19 -9 19 -14z
m1260 0 c0 -25 -47 -34 -77 -13 -32 20 -15 34 40 32 28 -1 37 -6 37 -19z
m-257 4 c-7 -2 -19 -2 -25 0 -7 3 -2 5 12 5 14 0 19 -2 13 -5z"/>
<path d="M1351 894 c0 -11 3 -14 6 -6 3 7 2 16 -1 19 -3 4 -6 -2 -5 -13z"/>
<path d="M1341 774 c0 -11 3 -14 6 -6 3 7 2 16 -1 19 -3 4 -6 -2 -5 -13z"/>
<path d="M1326 723 c-6 -14 -5 -15 5 -6 7 7 10 15 7 18 -3 3 -9 -2 -12 -12z"/>
<path d="M1341 654 c0 -11 3 -14 6 -6 3 7 2 16 -1 19 -3 4 -6 -2 -5 -13z"/>
<path d="M1338 623 c7 -3 16 -2 19 1 4 3 -2 6 -13 5 -11 0 -14 -3 -6 -6z"/>
</g>
</svg>
