<?xml version="1.0" standalone="no"?>
<!DOCTYPE svg PUBLIC "-//W3C//DTD SVG 20010904//EN"
 "http://www.w3.org/TR/2001/REC-SVG-20010904/DTD/svg10.dtd">
<svg version="1.0" xmlns="http://www.w3.org/2000/svg"
 width="160.000000pt" height="160.000000pt" viewBox="0 0 160.000000 160.000000"
 preserveAspectRatio="xMidYMid meet">
<metadata>
Created by potrace 1.11, written by Peter Selinger 2001-2013
</metadata>
<g transform="translate(0.000000,160.000000) scale(0.100000,-0.100000)"
fill="#000000" stroke="none">
<path d="M0 800 l0 -800 800 0 800 0 0 800 0 800 -800 0 -800 0 0 -800z m1580
-500 c0 -5 -9 -10 -20 -10 -11 0 -23 0 -27 -1 -4 0 -9 4 -11 10 -2 6 10 11 27
11 17 0 31 -4 31 -10z m-950 -20 c0 -11 -31 -42 -36 -37 -9 9 9 37 19 30 6 -4
8 0 4 11 -4 10 -3 15 3 11 6 -3 10 -10 10 -15z m380 -31 c0 -3 -7 -6 -15 -6
-15 0 -20 18 -8 30 6 7 22 -10 23 -24z m577 -14 c0 -19 -27 -19 -63 0 l-29 15
46 0 c34 0 46 -4 46 -15z"/>
</g>
</svg>
